<?xml version="1.0" standalone="no"?>
<!DOCTYPE svg PUBLIC "-//W3C//DTD SVG 20010904//EN"
 "http://www.w3.org/TR/2001/REC-SVG-20010904/DTD/svg10.dtd">
<svg version="1.0" xmlns="http://www.w3.org/2000/svg"
 width="300.000000pt" height="300.000000pt" viewBox="0 0 300.000000 300.000000"
 preserveAspectRatio="xMidYMid meet">
<metadata>
Created by potrace 1.10, written by Peter Selinger 2001-2011
</metadata>
<g transform="translate(0.000000,300.000000) scale(0.100000,-0.100000)"
fill="#000000" stroke="none">
<path d="M866 2384 c-24 -25 -26 -33 -26 -114 0 -78 3 -91 28 -128 15 -22 139
-171 275 -332 137 -161 251 -297 253 -304 3 -7 -75 -107 -172 -222 -97 -115
-186 -220 -198 -234 -11 -14 -49 -57 -82 -95 -96 -110 -104 -126 -104 -224 0
-79 2 -87 27 -113 l27 -28 607 0 607 0 26 31 c23 27 26 39 26 112 0 95 -8 113
-104 222 -71 81 -55 62 -280 329 -97 115 -176 212 -176 216 0 7 114 143 416
498 146 170 147 172 142 281 -5 143 60 130 -659 131 l-606 0 -27 -26z m1254
-108 l0 -94 -290 -341 -290 -341 290 -341 290 -341 0 -94 0 -94 -620 0 -620 0
0 94 0 94 290 341 290 341 -290 341 -290 341 0 94 0 94 620 0 620 0 0 -94z"/>
<path d="M997 2138 c22 -24 143 -164 269 -313 125 -148 231 -270 234 -270 3 0
33 32 65 70 282 333 404 476 439 513 l40 42 -544 0 -544 0 41 -42z m932 -10
c0 -7 -23 -41 -52 -75 -226 -267 -370 -433 -377 -433 -5 0 -70 73 -146 163
-76 89 -171 201 -211 248 -40 47 -73 91 -73 97 0 9 112 12 430 12 338 0 430
-3 429 -12z"/>
<path d="M1465 1412 c-59 -75 -429 -508 -468 -549 l-41 -43 544 0 544 0 -41
43 c-39 41 -409 474 -468 549 -17 21 -32 38 -35 38 -3 0 -18 -17 -35 -38z
m181 -194 c76 -90 171 -202 211 -249 40 -47 73 -91 73 -97 0 -9 -112 -12 -430
-12 -309 0 -430 3 -430 11 0 9 69 101 90 119 4 3 79 92 169 198 89 105 166
192 171 192 5 0 70 -73 146 -162z"/>
</g>
</svg>
